<svg width="109" height="63" viewBox="0 0 109 63" fill="none" xmlns="http://www.w3.org/2000/svg">
<g clip-path="url(#clip0_255_17)">
<path d="M109 13.5006V10.4993H11.9462V0H8.95858V10.4993H0V13.5006H8.95858V28.5008H0V31.5H8.95858V46.5002H0V49.5016H8.95858V63H11.9462V49.5016H109V46.5002H11.9462V31.5H109V28.5008H11.9462V13.5006H109Z" fill="#ACE6FF"/>
<path d="M31.3583 0H26.8779V63H31.3583V0Z" fill="#FF455B"/>
<path d="M66.3274 19.893C65.75 18.861 64.909 18.0025 63.891 17.4061C62.8356 16.781 61.6295 16.4591 60.4044 16.4757C59.169 16.4597 57.9525 16.7813 56.885 17.4061C55.8597 18.0027 55.0077 18.8586 54.4138 19.8886C53.807 20.974 53.4973 22.2014 53.516 23.446C53.4854 24.6764 53.7556 25.8956 54.3027 26.9969C54.8478 28.0121 55.6432 28.8699 56.6126 29.4881C57.607 30.0828 58.7427 30.3967 59.8999 30.3967C61.0571 30.3967 62.1928 30.0828 63.1872 29.4881L63.0281 29.232L63.1828 29.4816C63.5516 29.2311 63.894 28.9436 64.2048 28.6234V28.7964C64.196 29.2014 64.3445 29.594 64.6189 29.891L64.6341 29.9063C64.9291 30.1829 65.3203 30.3323 65.7237 30.3222C65.9216 30.3284 66.1187 30.2941 66.303 30.2215C66.4873 30.1488 66.6549 30.0394 66.7959 29.8997C66.9379 29.7559 67.0496 29.5849 67.1245 29.3969C67.1994 29.2089 67.2358 29.0076 67.2317 28.8051V23.2512H67.2208C67.215 22.0733 66.9073 20.9168 66.3274 19.893ZM63.7973 25.6089C63.4694 26.2211 62.9879 26.7365 62.4005 27.1041C61.7894 27.4646 61.0911 27.6487 60.3826 27.6361C59.6737 27.6454 58.9756 27.4616 58.3625 27.1041C57.7709 26.7324 57.2817 26.2176 56.9395 25.6067C56.5923 24.9414 56.4163 24.1994 56.4274 23.4482C56.4132 22.6967 56.5894 21.954 56.9395 21.2897C57.2722 20.6732 57.7627 20.157 58.3603 19.7945C58.9685 19.4226 59.6685 19.2299 60.3804 19.2384C61.0906 19.2253 61.7895 19.4176 62.394 19.7923C62.9866 20.1508 63.4692 20.6667 63.7886 21.2831C64.1387 21.9474 64.3149 22.6902 64.3007 23.4417C64.3169 24.1951 64.1438 24.9405 63.7973 25.6089Z" fill="#4EAAFF"/>
<path d="M38.2971 29.6655L38.0791 29.8603C38.2197 29.9999 38.387 30.1094 38.5709 30.182C38.7549 30.2546 38.9516 30.2889 39.1491 30.2828C39.3497 30.2895 39.5495 30.2555 39.7367 30.1829C39.9239 30.1103 40.0946 30.0006 40.2387 29.8603C40.5141 29.564 40.6627 29.171 40.6527 28.7657V24.5647H47.4387V28.7767C47.4287 29.1819 47.5774 29.575 47.8527 29.8713L47.868 29.8866C48.1629 30.1632 48.5542 30.3126 48.9576 30.3025C49.158 30.3109 49.3579 30.2761 49.544 30.2006C49.73 30.1251 49.8978 30.0106 50.0363 29.8647C50.293 29.5635 50.4296 29.1775 50.4198 28.7811V18.1045C50.4365 17.7025 50.2966 17.3098 50.0297 17.0099C49.8912 16.8641 49.7233 16.7497 49.5373 16.6742C49.3513 16.5987 49.1515 16.5639 48.951 16.572C48.5474 16.5628 48.1562 16.7129 47.8614 16.9902C47.7209 17.1344 47.611 17.3057 47.5383 17.4939C47.4656 17.682 47.4317 17.8831 47.4387 18.0848V21.8042H40.6724V18.1045C40.6837 17.9002 40.652 17.6959 40.5794 17.5048C40.5068 17.3137 40.3948 17.1402 40.2508 16.9955C40.1068 16.8509 39.9341 16.7384 39.7439 16.6654C39.5536 16.5925 39.3502 16.5606 39.1469 16.572C38.9492 16.5662 38.7524 16.6009 38.5685 16.6739C38.3845 16.7469 38.2173 16.8567 38.077 16.9967C37.8101 17.2967 37.6702 17.6894 37.6869 18.0913V28.7723C37.6771 29.1687 37.8137 29.5547 38.0704 29.8559L38.2971 29.6655Z" fill="#4EAAFF"/>
<path d="M108.026 47.0344C108.03 46.6442 107.887 46.2668 107.625 45.9792L107.433 46.1412L107.396 46.1718L107.625 45.9792L103.99 41.6008L107.439 37.0605C107.682 36.7618 107.82 36.3908 107.832 36.0053V35.99C107.855 35.6457 107.748 35.3054 107.531 35.0377C107.407 34.8909 107.251 34.7749 107.076 34.6989C106.9 34.6229 106.709 34.589 106.518 34.5999C106.321 34.599 106.127 34.6385 105.947 34.7159H105.934H105.92C105.714 34.7969 105.534 34.9332 105.4 35.1099L105.633 35.2982L105.402 35.1121L102.113 39.5014L98.4394 35.099C98.3021 34.9315 98.1283 34.798 97.9314 34.7088C97.7345 34.6196 97.5198 34.5771 97.304 34.5845C97.1143 34.5731 96.9245 34.6047 96.7487 34.6771C96.5729 34.7495 96.4156 34.8608 96.2885 35.0027C96.0615 35.2746 95.9503 35.6254 95.9791 35.979C96.0032 36.343 96.1438 36.6893 96.38 36.9664L100.157 41.4607L96.6001 45.9179L96.8333 46.104L96.6154 45.9201C96.3686 46.2145 96.2281 46.584 96.2166 46.9687C96.2113 47.3112 96.3297 47.6441 96.55 47.9057V47.9166C96.679 48.0423 96.832 48.1405 96.9998 48.2052C97.1676 48.2699 97.3467 48.2998 97.5263 48.2931C97.7293 48.2943 97.9302 48.2522 98.1158 48.1696C98.3014 48.0869 98.4674 47.9656 98.6028 47.8137L101.989 43.5339L105.546 47.8203C105.684 48.0038 105.871 48.1443 106.086 48.2253C106.263 48.2831 106.449 48.3126 106.635 48.3128C106.813 48.3187 106.989 48.2889 107.155 48.2254C107.321 48.1619 107.472 48.0658 107.601 47.9429C107.724 47.83 107.823 47.6929 107.891 47.54C107.959 47.3871 107.995 47.2216 107.997 47.0541L108.026 47.0344Z" fill="#4EAAFF"/>
<path d="M66.1658 37.8464C65.6033 36.8137 64.7627 35.961 63.7404 35.3858C62.6496 34.7937 61.4292 34.4837 60.1894 34.4837C58.9496 34.4837 57.7292 34.7937 56.6384 35.3858C55.6128 35.9658 54.7655 36.8178 54.1891 37.8486L54.4418 37.9909L54.1869 37.8486C53.5882 38.9527 53.2877 40.195 53.3152 41.452C53.2917 42.7078 53.592 43.9484 54.1869 45.0532C54.7727 46.0763 55.6178 46.9252 56.6363 47.5138L56.7801 47.2555L56.6341 47.516C57.734 48.0926 58.9563 48.3938 60.197 48.3938C61.4377 48.3938 62.6601 48.0926 63.76 47.516C64.776 46.9307 65.615 46.0796 66.1876 45.0532L65.9283 44.9043L66.181 45.0488C66.7749 43.9436 67.0751 42.7033 67.0527 41.4476C67.0785 40.1875 66.7686 38.9435 66.1549 37.8442L66.1658 37.8464ZM63.8711 43.7747L63.6118 43.6324C63.3002 44.2403 62.8254 44.7484 62.2411 45.0991C61.6162 45.4494 60.9126 45.6333 60.197 45.6333C59.4815 45.6333 58.7778 45.4494 58.153 45.0991C57.5629 44.7454 57.08 44.2368 56.7561 43.628C56.4179 42.9502 56.2418 42.2025 56.2418 41.4443C56.2418 40.6861 56.4179 39.9384 56.7561 39.2606C57.0756 38.6429 57.5591 38.1262 58.153 37.7676C58.7783 37.4187 59.4818 37.2357 60.197 37.2357C60.9123 37.2357 61.6158 37.4187 62.2411 37.7676C62.8301 38.1215 63.3052 38.6383 63.6096 39.2562C63.9463 39.9345 64.1216 40.682 64.1216 41.4399C64.1216 42.1979 63.9463 42.9454 63.6096 43.6236L63.8711 43.7681V43.7747Z" fill="#4EAAFF"/>
<path d="M81.3114 46.417L81.5751 46.2988L76.6524 35.5719C76.5412 35.2799 76.3463 35.0278 76.0923 34.8472C75.8524 34.6868 75.5698 34.6029 75.2817 34.6064C74.9796 34.6001 74.6829 34.6872 74.4318 34.856C74.1812 35.0379 73.9852 35.2856 73.8652 35.5719L68.9185 46.2988C68.8232 46.4633 68.7671 46.6477 68.7546 46.8376C68.7421 47.0275 68.7736 47.2177 68.8466 47.3934V47.4065C69.0228 47.7209 69.2969 47.9686 69.6267 48.1114C69.9701 48.2954 70.3696 48.3439 70.7468 48.2472H70.7577L70.664 47.9648L70.7577 48.2494C70.9393 48.1875 71.106 48.0881 71.2471 47.9577C71.3882 47.8272 71.5006 47.6686 71.5771 47.4919L71.3068 47.3649L71.5792 47.4875L75.3187 39.219L78.9427 47.4853V47.4985C79.1078 47.8433 79.4014 48.1091 79.7599 48.2384C80.1372 48.3357 80.5371 48.2889 80.8821 48.1071L80.7579 47.8422L80.8843 48.1136C81.1985 47.9752 81.4529 47.7282 81.6013 47.4175C81.6722 47.24 81.7045 47.0492 81.6958 46.8581C81.6872 46.667 81.6378 46.48 81.5511 46.3097L81.3114 46.417Z" fill="#4EAAFF"/>
<path d="M49.7392 37.3933C49.2482 36.4602 48.4888 35.6974 47.56 35.2041C46.6162 34.6905 45.5563 34.4304 44.4831 34.4488C43.442 34.4341 42.4144 34.6866 41.4976 35.1822C41.2033 35.3564 40.9254 35.5572 40.6673 35.782C40.6301 35.4863 40.5013 35.2098 40.299 34.9917C40.155 34.8515 39.9842 34.7418 39.797 34.6692C39.6098 34.5966 39.41 34.5626 39.2095 34.5692C38.8061 34.5592 38.4148 34.7085 38.1199 34.9852C37.9795 35.1295 37.8697 35.3009 37.7971 35.489C37.7244 35.6771 37.6904 35.8781 37.6971 36.0798V46.7826C37.6883 47.1877 37.8368 47.5803 38.1112 47.8772L38.1264 47.8903C38.4212 48.1676 38.8123 48.3177 39.216 48.3085C39.4167 48.3147 39.6166 48.2803 39.8038 48.2073C39.9909 48.1344 40.1616 48.0243 40.3056 47.8838C40.5804 47.5871 40.7289 47.1943 40.7196 46.7892V40.0334C40.7095 39.538 40.8577 39.0523 41.1424 38.6477L40.9005 38.4725L41.1446 38.6433C41.4454 38.2119 41.8513 37.8651 42.3235 37.6363C42.8474 37.3811 43.4236 37.2529 44.0058 37.2619C44.6283 37.2476 45.245 37.3843 45.8036 37.6603C46.3233 37.9062 46.7537 38.3087 47.0349 38.8118C47.3692 39.4518 47.5286 40.1695 47.4969 40.8916V46.8023C47.4869 47.2076 47.6355 47.6006 47.9109 47.8969L47.9262 47.91C48.2209 48.1873 48.6121 48.3374 49.0157 48.3282C49.2137 48.3339 49.4109 48.2992 49.5951 48.2262C49.7794 48.1532 49.9471 48.0434 50.0879 47.9035C50.23 47.7598 50.3418 47.5888 50.4167 47.4007C50.4915 47.2127 50.528 47.0114 50.5237 46.8089V40.8981C50.5237 39.5343 50.2622 38.3631 49.724 37.3954L49.7392 37.3933Z" fill="#4EAAFF"/>
<path d="M92.6806 34.5736H88.5401C87.6319 34.5565 86.7347 34.776 85.936 35.2106C85.2054 35.6065 84.5913 36.1886 84.1556 36.8985L84.4084 37.0561L84.1578 36.8985C83.7249 37.6375 83.5032 38.4821 83.5171 39.3394C83.496 40.1105 83.6962 40.8714 84.0938 41.5313C84.4914 42.1912 85.0697 42.7223 85.7595 43.061C85.8598 43.1136 85.9774 43.1333 86.0798 43.177L83.9007 46.0427C83.6937 46.302 83.5719 46.6194 83.552 46.9512C83.5458 47.1405 83.5842 47.3286 83.6641 47.5002C83.744 47.6718 83.8631 47.822 84.0118 47.9385L84.2101 47.7196L84.0162 47.9385C84.3328 48.1904 84.7258 48.3256 85.1297 48.3216C85.3721 48.3319 85.6132 48.281 85.831 48.1735C86.0487 48.0661 86.2362 47.9055 86.3762 47.7064L89.4096 43.9104H91.2162V46.7826C91.2074 47.188 91.3568 47.5809 91.6324 47.8772L91.8503 47.6714L91.6324 47.875C91.7693 48.0135 91.9328 48.1226 92.113 48.1957C92.2932 48.2687 92.4863 48.3041 92.6806 48.2997C92.8777 48.3081 93.0744 48.2749 93.258 48.2021C93.4416 48.1293 93.6079 48.0186 93.7462 47.8772C94.0186 47.5941 94.1743 47.2179 94.182 46.8242V36.0973C94.1934 35.893 94.1617 35.6887 94.089 35.4976C94.0164 35.3065 93.9044 35.133 93.7605 34.9883C93.6165 34.8437 93.4437 34.7312 93.2535 34.6582C93.0633 34.5853 92.8599 34.5534 92.6566 34.5648L92.6806 34.5736ZM86.8774 37.7807L86.9232 37.8355L86.8752 37.7785L86.8774 37.7807ZM87.0648 37.9997C87.4716 37.637 87.9985 37.4402 88.5423 37.448H91.2053V41.2878H88.5467C88.0032 41.2961 87.4762 41.1002 87.0692 40.7383C86.8676 40.5661 86.7078 40.35 86.6017 40.1065C86.4956 39.863 86.446 39.5984 86.4568 39.3329C86.4487 39.0789 86.4994 38.8264 86.6049 38.5955C86.7104 38.3645 86.8679 38.1613 87.0648 38.0018V37.9997Z" fill="#4EAAFF"/>
</g>
<defs>
<clipPath id="clip0_255_17">
<rect width="109" height="63" fill="white"/>
</clipPath>
</defs>
</svg>
