<svg width="216" height="123" viewBox="0 0 216 123" fill="none" xmlns="http://www.w3.org/2000/svg">
<g clip-path="url(#clip0_421_35)">
<path opacity="0.4" d="M216 26.3584V20.4986H23.6732V0H17.7528V20.4986H0V26.3584H17.7528V55.6445H0V61.5H17.7528V90.7861H0V96.6459H17.7528V123H23.6732V96.6459H216V90.7861H23.6732V61.5H216V55.6445H23.6732V26.3584H216Z" fill="white"/>
<path d="M62.1412 0H53.2627V123H62.1412V0Z" fill="#FF455B"/>
<path d="M131.438 38.8387C130.294 36.8241 128.627 35.148 126.61 33.9834C124.519 32.761 122.129 32.1325 119.701 32.1669C117.247 32.134 114.83 32.7619 112.709 33.9834C110.684 35.1505 109.002 36.8213 107.83 38.8302C106.627 40.9492 106.013 43.3456 106.05 45.7756C105.99 48.1778 106.525 50.5581 107.609 52.7082C108.689 54.6911 110.265 56.3661 112.187 57.5721C114.158 58.7322 116.408 59.3446 118.701 59.3446C120.994 59.3446 123.245 58.7322 125.215 57.5721L124.9 57.072L125.207 57.5593C125.937 57.0698 126.616 56.5085 127.232 55.8838V56.2215C127.215 57.0123 127.509 57.7788 128.053 58.3585L128.083 58.3885C128.667 58.929 129.442 59.2206 130.242 59.2005C130.634 59.2125 131.025 59.1456 131.39 59.0038C131.755 58.862 132.087 58.6483 132.367 58.3756C132.648 58.0952 132.87 57.7614 133.018 57.3942C133.167 57.027 133.239 56.634 133.23 56.2386V45.3952C133.211 43.0937 132.594 40.8359 131.438 38.8387ZM126.425 50.0069C125.776 51.2033 124.822 52.21 123.656 52.9262C122.446 53.6312 121.062 53.9907 119.658 53.9648C118.253 53.983 116.87 53.624 115.655 52.9262C114.483 52.1996 113.514 51.1946 112.835 50.0027C112.148 48.7033 111.799 47.2548 111.82 45.7884C111.79 44.321 112.139 42.8704 112.835 41.5742C113.494 40.3704 114.466 39.3627 115.65 38.6549C116.855 37.9282 118.242 37.552 119.653 37.5693C121.061 37.5437 122.446 37.9191 123.643 38.6507C124.818 39.3509 125.774 40.358 126.407 41.5613C127.103 42.8575 127.452 44.3082 127.422 45.7756C127.453 47.2465 127.11 48.7016 126.425 50.0069Z" fill="white"/>
<path d="M75.8905 57.9183L75.4587 58.2987C75.7369 58.5717 76.0684 58.7856 76.4329 58.9275C76.7975 59.0693 77.1875 59.136 77.579 59.1236C77.9763 59.1358 78.3721 59.0692 78.7429 58.9275C79.1138 58.7858 79.4522 58.572 79.7382 58.2987C80.2843 57.7204 80.5789 56.9529 80.5587 56.1617V47.9597H94.006V56.183C93.9858 56.9743 94.2804 57.7418 94.8265 58.3201L94.8568 58.35C95.441 58.8905 96.2164 59.1822 97.0159 59.1621C97.4168 59.1817 97.8172 59.1155 98.1898 58.968C98.5624 58.8204 98.8985 58.5951 99.1751 58.3073C99.6846 57.7196 99.9554 56.9657 99.9351 56.1916V35.3468C99.9683 34.562 99.691 33.7954 99.1622 33.2098C98.8856 32.9219 98.5495 32.6966 98.1769 32.549C97.8042 32.4015 97.4038 32.3353 97.003 32.3549C96.203 32.3365 95.4276 32.6296 94.8438 33.1713C94.5659 33.4533 94.3484 33.7879 94.2045 34.1552C94.0605 34.5224 93.993 34.9146 94.006 35.3083V42.5743H80.5975V35.3468C80.6185 34.9747 80.5653 34.6021 80.4408 34.2503C80.3163 33.8986 80.123 33.5745 79.872 33.2967C79.6209 33.0189 79.3171 32.7927 78.9777 32.6311C78.6384 32.4695 78.2702 32.3757 77.8942 32.3549C77.7863 32.3549 77.6826 32.3549 77.5747 32.3549C77.183 32.3443 76.7932 32.4123 76.4288 32.5548C76.0644 32.6973 75.7329 32.9114 75.4544 33.1841C74.9255 33.7697 74.6482 34.5364 74.6814 35.3212V56.1745C74.6611 56.9486 74.9319 57.7025 75.4414 58.2902L75.8905 57.9183Z" fill="white"/>
<path d="M214.069 91.8289C214.079 91.0671 213.795 90.3303 213.275 89.7687L212.895 90.085L212.821 90.1449L213.275 89.7687L206.072 81.2077L212.895 72.3561C213.376 71.7728 213.649 71.0486 213.672 70.2959V70.266C213.718 69.594 213.505 68.9296 213.076 68.4068C212.831 68.1201 212.522 67.8936 212.174 67.7453C211.825 67.5969 211.447 67.5308 211.068 67.552C210.679 67.552 210.295 67.629 209.937 67.7785H209.885C209.476 67.9362 209.119 68.2024 208.853 68.5478L209.315 68.9154L208.857 68.5521L202.341 77.1217L195.06 68.5265C194.788 68.1995 194.443 67.9388 194.053 67.7646C193.663 67.5904 193.238 67.5074 192.81 67.5221C192.434 67.4997 192.058 67.5614 191.71 67.7028C191.361 67.8441 191.05 68.0614 190.798 68.3384C190.348 68.8694 190.128 69.5542 190.184 70.2447C190.233 70.955 190.512 71.6308 190.979 72.1723L198.463 80.947L191.415 89.6491L191.877 90.0124L191.445 89.6533C190.956 90.2278 190.677 90.9494 190.655 91.7006C190.646 92.3692 190.88 93.0187 191.316 93.5299C191.572 93.7752 191.875 93.9667 192.207 94.093C192.54 94.2194 192.895 94.2779 193.251 94.2651C193.653 94.2666 194.051 94.184 194.418 94.0227C194.786 93.8614 195.115 93.625 195.384 93.3291L202.099 84.9946L209.146 93.3633C209.421 93.721 209.793 93.995 210.217 94.154C210.569 94.2665 210.936 94.3241 211.306 94.3249C211.657 94.3353 212.007 94.2769 212.335 94.1529C212.663 94.0289 212.964 93.8419 213.219 93.6026C213.463 93.382 213.658 93.1142 213.794 92.8157C213.929 92.5172 214.001 92.1944 214.005 91.8673L214.069 91.8289Z" fill="white"/>
<path d="M131.118 73.8908C130.004 71.8746 128.338 70.2097 126.312 69.0867C124.15 67.9315 121.732 67.3267 119.275 67.3267C116.819 67.3267 114.4 67.9315 112.239 69.0867C110.206 70.2191 108.527 71.8824 107.385 73.895L107.886 74.1728L107.38 73.895C106.193 76.0502 105.597 78.476 105.653 80.9302C105.606 83.3821 106.201 85.8043 107.38 87.9611C108.545 89.9514 110.219 91.6026 112.234 92.7481L112.519 92.2437L112.23 92.7523C114.409 93.8789 116.832 94.4672 119.29 94.4672C121.749 94.4672 124.171 93.8789 126.351 92.7523C128.364 91.6097 130.027 89.9479 131.162 87.944L130.648 87.6533L131.149 87.9354C132.326 85.7779 132.921 83.3562 132.876 80.9045C132.929 78.4443 132.314 76.015 131.097 73.8694L131.118 73.8908ZM126.571 85.4821L126.057 85.2043C125.44 86.3915 124.499 87.3836 123.341 88.0679C122.103 88.751 120.708 89.1096 119.29 89.1096C117.873 89.1096 116.478 88.751 115.24 88.0679C114.071 87.3766 113.114 86.3838 112.472 85.1957C111.801 83.8726 111.452 82.4127 111.452 80.9323C111.452 79.452 111.801 77.992 112.472 76.6689C113.105 75.4632 114.063 74.4544 115.24 73.754C116.479 73.0729 117.873 72.7155 119.29 72.7155C120.708 72.7155 122.102 73.0729 123.341 73.754C124.507 74.4463 125.448 75.4549 126.053 76.6604C126.723 77.9875 127.072 79.4508 127.072 80.9345C127.072 82.4181 126.723 83.8814 126.053 85.2086L126.571 85.4907V85.4821Z" fill="white"/>
<path d="M161.131 90.6107L161.653 90.3799L151.898 69.4368C151.679 68.8664 151.292 68.3737 150.788 68.0221C150.313 67.7087 149.753 67.5448 149.182 67.5519C148.583 67.5393 147.995 67.7094 147.498 68.0392C147.001 68.3941 146.612 68.8777 146.375 69.4368L136.572 90.3799C136.383 90.7008 136.271 91.0609 136.246 91.4318C136.222 91.8027 136.284 92.1742 136.43 92.5169V92.5426C136.779 93.1566 137.322 93.6402 137.976 93.9188C138.656 94.2777 139.448 94.3722 140.195 94.1838H140.217L140.031 93.6325L140.217 94.1881C140.577 94.0675 140.907 93.8736 141.187 93.6189C141.467 93.3642 141.689 93.0543 141.841 92.7093L141.305 92.4614L141.845 92.7007L149.255 76.5574L156.437 92.6964V92.7477C156.763 93.4218 157.345 93.941 158.056 94.1924C158.804 94.3812 159.596 94.2898 160.28 93.9359L160.034 93.4188L160.284 93.9488C160.907 93.6788 161.411 93.1965 161.705 92.5896C161.846 92.2432 161.91 91.8707 161.893 91.4975C161.876 91.1244 161.778 90.7592 161.606 90.4269L161.131 90.6107Z" fill="white"/>
<path d="M98.567 73.0058C97.5939 71.1842 96.0891 69.6948 94.2486 68.7317C92.3783 67.7289 90.278 67.221 88.1511 67.2572C86.0881 67.2287 84.0519 67.7215 82.2349 68.689C81.6516 69.0289 81.1009 69.4209 80.5897 69.8601C80.5159 69.2828 80.2606 68.743 79.8598 68.3172C79.5739 68.0439 79.2355 67.8301 78.8646 67.6884C78.4938 67.5467 78.098 67.48 77.7007 67.4923C76.9012 67.4722 76.1257 67.7638 75.5415 68.3043C75.2636 68.5863 75.0461 68.921 74.9022 69.2882C74.7582 69.6554 74.6907 70.0477 74.7037 70.4414V91.3374C74.6862 92.1283 74.9805 92.8948 75.5242 93.4745L75.5544 93.5001C76.1383 94.0418 76.9136 94.335 77.7136 94.3165C78.1114 94.3294 78.5077 94.2626 78.8787 94.1201C79.2498 93.9776 79.5879 93.7624 79.8728 93.4873C80.4165 92.9076 80.7108 92.1411 80.6933 91.3503V78.1604C80.672 77.193 80.9657 76.2444 81.5311 75.4549L81.0517 75.113L81.5354 75.4464C82.1317 74.6043 82.936 73.9275 83.8716 73.4803C84.9094 72.9807 86.0515 72.7303 87.2054 72.7494C88.4389 72.7204 89.6613 72.9873 90.768 73.5273C91.7978 74.0072 92.6507 74.7931 93.2079 75.7755C93.8706 77.0249 94.1865 78.4261 94.1234 79.8358V91.3759C94.1031 92.1672 94.3978 92.9347 94.9439 93.513L94.9741 93.5386C95.5579 94.0803 96.3333 94.3734 97.1333 94.355C97.5256 94.3657 97.9161 94.2977 98.2812 94.1552C98.6463 94.0128 98.9786 93.7986 99.2579 93.5258C99.5397 93.2454 99.7614 92.9116 99.9098 92.5444C100.058 92.1772 100.13 91.7841 100.122 91.3887V79.8487C100.122 77.1859 99.6034 74.8993 98.5368 73.0101L98.567 73.0058Z" fill="white"/>
<path d="M183.66 67.501H175.455C173.655 67.4665 171.877 67.895 170.295 68.7447C168.847 69.5186 167.631 70.6549 166.766 72.0401L167.267 72.3478L166.771 72.0401C165.913 73.4829 165.474 75.1318 165.501 76.8057C165.459 78.3112 165.855 79.7971 166.643 81.0855C167.431 82.374 168.577 83.4107 169.945 84.0717C170.143 84.1742 170.377 84.2127 170.58 84.2982L166.261 89.893C165.85 90.3987 165.609 91.0187 165.57 91.6667C165.558 92.0363 165.634 92.4035 165.793 92.7384C165.951 93.0734 166.187 93.3666 166.481 93.5943L166.874 93.1669L166.49 93.5943C167.117 94.0862 167.896 94.3502 168.697 94.3423C169.177 94.3628 169.655 94.2636 170.087 94.0537C170.518 93.8439 170.89 93.5302 171.167 93.1413L177.178 85.73H180.758V91.3376C180.742 92.129 181.037 92.8956 181.583 93.4747L182.015 93.0729L181.583 93.4704C181.854 93.7409 182.178 93.9539 182.535 94.0964C182.892 94.239 183.275 94.3081 183.66 94.2996C184.051 94.3168 184.441 94.2522 184.805 94.1101C185.168 93.968 185.498 93.7514 185.772 93.4747C186.311 92.9217 186.62 92.1874 186.635 91.4188V70.4758C186.656 70.1036 186.603 69.731 186.478 69.3793C186.354 69.0275 186.161 68.7035 185.91 68.4257C185.659 68.1478 185.355 67.9217 185.015 67.7601C184.676 67.5985 184.308 67.5046 183.932 67.4839H183.612L183.66 67.501ZM172.16 73.7625L172.251 73.8694L172.156 73.7583L172.16 73.7625ZM172.531 74.1899C173.337 73.4819 174.382 73.0977 175.459 73.1129H180.736V80.6096H175.468C174.391 80.626 173.347 80.2433 172.54 79.5368C172.141 79.2006 171.824 78.7788 171.614 78.3034C171.403 77.828 171.305 77.3114 171.327 76.7929C171.311 76.297 171.411 75.8042 171.62 75.3532C171.829 74.9023 172.141 74.5055 172.531 74.1942V74.1899Z" fill="white"/>
</g>
<defs>
<clipPath id="clip0_421_35">
<rect width="216" height="123" fill="white"/>
</clipPath>
</defs>
</svg>
