<?xml version="1.0" standalone="no"?>
<!DOCTYPE svg PUBLIC "-//W3C//DTD SVG 20010904//EN"
 "http://www.w3.org/TR/2001/REC-SVG-20010904/DTD/svg10.dtd">
<svg version="1.0" xmlns="http://www.w3.org/2000/svg"
 width="1248.000000pt" height="1248.000000pt" viewBox="0 0 1248.000000 1248.000000"
 preserveAspectRatio="xMidYMid meet">
<metadata>
Created by potrace 1.14, written by Peter Selinger 2001-2017
</metadata>
<g transform="translate(0.000000,1248.000000) scale(0.100000,-0.100000)"
fill="#000000" stroke="none">
<path d="M1029 9758 c-1 -2 -2 -268 -3 -593 l-1 -590 -465 -2 c-256 -1 -486
-3 -512 -3 l-48 0 0 -160 0 -160 408 0 c224 1 454 1 512 0 l105 0 0 -842 0
-843 -90 -2 c-50 -1 -93 -2 -97 -3 -22 -4 -89 -2 -94 3 -3 3 -17 2 -30 -3 -14
-6 -24 -6 -24 0 0 5 -12 5 -30 0 -17 -5 -32 -5 -35 0 -3 6 -16 5 -29 0 -13 -5
-27 -6 -30 -3 -5 5 -193 7 -213 3 -11 -3 -61 -1 -110 2 -24 2 -43 1 -43 -2 0
-7 -69 -5 -76 3 -3 3 -17 2 -30 -3 -13 -5 -26 -6 -28 -1 -3 4 -19 6 -36 3
l-30 -4 0 -160 0 -159 52 1 c29 0 260 0 513 -2 l460 -3 0 -842 0 -843 -512 0
-513 0 0 -160 0 -160 53 -1 c28 0 258 0 509 0 338 -1 458 -4 460 -12 2 -7 4
-346 4 -754 l-1 -743 160 0 160 0 0 742 c-1 409 1 748 3 755 5 16 1721 16
1724 0 0 -7 2 -340 4 -742 1 -401 2 -736 3 -742 1 -10 56 -13 239 -13 l238 0
0 746 c-1 486 2 749 9 754 6 4 2014 7 4462 7 l4453 -2 0 163 0 162 -324 0
-324 0 3 47 c2 29 -3 60 -12 78 -13 24 -81 114 -103 135 -3 3 -25 30 -50 60
-79 97 -85 103 -100 120 -8 8 -27 31 -42 50 -15 19 -41 51 -58 70 -67 75 -67
72 -18 137 52 70 54 72 76 100 10 12 27 34 38 48 20 29 86 114 159 207 25 32
45 62 45 68 0 5 4 10 9 10 13 0 38 70 39 110 3 147 -180 197 -273 74 -16 -21
-34 -44 -40 -51 -5 -6 -21 -28 -35 -48 -14 -19 -34 -47 -45 -60 -11 -14 -63
-83 -115 -154 -52 -71 -100 -130 -106 -130 -6 -1 -35 29 -65 66 -30 37 -61 75
-69 84 -8 8 -24 27 -35 40 -11 14 -54 65 -95 114 -41 49 -82 98 -90 109 -36
45 -73 78 -101 90 -68 29 -165 -5 -190 -66 -29 -70 -6 -142 76 -233 20 -22 46
-53 58 -68 12 -15 31 -38 42 -51 11 -12 39 -44 62 -72 23 -27 50 -59 60 -70
10 -12 36 -43 58 -69 22 -26 48 -57 58 -68 22 -26 22 -29 -8 -63 -14 -16 -29
-33 -33 -39 -19 -27 -279 -353 -295 -370 -44 -49 -61 -89 -62 -147 l0 -58
-118 0 -118 0 7 23 c14 38 12 1224 -2 1263 -13 39 -57 81 -94 91 -31 9 -527 9
-595 1 -139 -18 -299 -118 -362 -226 -15 -26 -30 -49 -33 -52 -4 -3 -11 -18
-15 -35 -4 -16 -9 -34 -11 -40 -20 -65 -25 -192 -11 -255 25 -114 114 -230
212 -279 28 -14 43 -27 39 -34 -11 -18 -78 -111 -84 -117 -3 -3 -35 -43 -70
-90 -35 -47 -67 -87 -70 -90 -20 -16 -38 -89 -30 -123 l8 -37 -114 0 c-114 0
-115 0 -103 21 19 37 3 100 -61 233 -33 70 -60 129 -60 131 0 2 -18 42 -40 87
-23 46 -41 84 -41 85 1 2 -22 51 -49 109 -28 59 -50 108 -50 110 0 1 -20 45
-44 96 -71 151 -90 193 -91 198 -1 3 -15 34 -32 70 -90 194 -91 195 -134 219
-64 36 -137 28 -188 -20 -18 -17 -141 -255 -141 -274 0 -2 -29 -65 -65 -140
-36 -76 -65 -139 -65 -140 0 -2 -23 -52 -51 -112 -100 -211 -229 -494 -229
-502 0 -5 -6 -14 -14 -20 -19 -16 -32 -109 -17 -124 6 -6 11 -15 11 -19 0 -4
-127 -8 -281 -8 l-281 0 58 39 c151 101 255 268 292 466 8 45 7 254 -2 304
-14 83 -76 232 -112 272 -8 8 -14 19 -14 22 0 18 -78 97 -145 147 -81 61 -188
110 -275 127 -96 18 -213 22 -300 9 -80 -12 -83 -13 -105 -21 -84 -30 -131
-50 -135 -55 -3 -4 -21 -15 -40 -25 -18 -10 -39 -23 -46 -29 -6 -6 -33 -29
-58 -50 -111 -94 -195 -253 -222 -422 -11 -69 -10 -187 1 -261 6 -40 9 -73 7
-73 -2 0 0 -6 5 -12 6 -7 13 -25 17 -41 8 -36 58 -141 68 -145 4 -2 8 -8 8
-14 0 -10 66 -93 108 -135 13 -13 47 -40 75 -59 29 -20 54 -38 56 -40 2 -2
-147 -4 -332 -4 l-336 0 8 28 c6 21 13 251 12 412 0 32 0 215 0 225 0 6 -2 52
-5 104 -13 211 -96 387 -231 490 -45 35 -144 92 -170 98 -5 1 -35 10 -65 19
-82 23 -244 25 -339 3 -77 -18 -209 -77 -232 -105 -9 -12 -15 -7 -31 26 -56
113 -237 111 -288 -2 -16 -37 -18 -89 -18 -646 0 -333 4 -617 9 -629 l9 -23
-379 0 c-353 0 -379 1 -382 18 -3 9 -4 388 -3 842 0 808 1 825 20 826 10 1 24
3 29 4 6 1 14 2 18 1 5 -1 72 -1 150 -1 78 1 151 1 162 1 11 0 229 0 485 0
256 0 472 0 480 0 8 0 224 0 480 0 256 0 472 0 480 0 8 0 224 0 480 0 256 0
472 0 480 0 8 0 656 0 1440 0 784 0 1432 0 1440 0 8 0 224 0 480 0 256 0 472
0 480 0 8 0 421 -1 917 -3 l903 -3 0 158 c0 154 0 158 -22 166 -13 5 -28 5
-34 0 -6 -5 -13 -6 -17 -3 -5 5 -109 8 -132 4 -5 -2 -14 -1 -20 0 -11 2 -205
2 -217 0 -22 -4 -89 -2 -94 3 -3 3 -17 2 -30 -3 -13 -5 -24 -6 -24 -1 0 5 -16
5 -35 1 -19 -4 -37 -4 -40 0 -3 5 -19 5 -35 0 -17 -5 -30 -6 -30 -2 0 4 -27 7
-60 7 -33 0 -60 -3 -60 -6 0 -4 -16 -3 -34 1 -19 4 -37 5 -40 2 -8 -7 -85 -7
-92 1 -3 3 -17 2 -30 -3 -14 -6 -26 -6 -29 0 -3 6 -15 6 -30 0 -15 -6 -27 -6
-30 0 -3 5 -15 6 -28 1 -12 -5 -32 -5 -44 0 -13 5 -25 4 -28 -2 -4 -5 -13 -6
-22 0 -9 5 -29 5 -45 1 -15 -5 -30 -5 -33 0 -3 5 -16 5 -30 0 -15 -6 -27 -6
-30 0 -3 6 -15 6 -30 0 -15 -6 -27 -6 -30 0 -3 5 -15 6 -28 1 -12 -5 -32 -5
-44 0 -13 5 -25 4 -28 -1 -4 -6 -13 -7 -24 -1 -10 6 -23 6 -31 1 -8 -5 -18 -6
-22 -4 -13 8 -88 10 -88 2 0 -4 -6 -5 -13 -2 -22 8 -117 9 -117 1 0 -5 -5 -5
-10 -2 -9 6 -161 10 -182 5 -21 -4 -89 -2 -94 3 -3 3 -17 2 -30 -3 -14 -6 -24
-6 -24 0 0 5 -12 5 -30 0 -17 -5 -32 -5 -35 0 -3 6 -16 5 -29 0 -13 -5 -27 -6
-30 -3 -5 5 -193 7 -213 3 -11 -3 -61 -1 -111 2 -23 2 -42 1 -42 -2 0 -7 -69
-5 -76 3 -3 3 -17 2 -30 -3 -13 -5 -25 -6 -28 -2 -3 5 -30 5 -61 2 -31 -3 -58
-3 -61 2 -3 4 -16 3 -29 -2 -15 -6 -27 -6 -30 0 -3 6 -15 6 -30 0 -15 -6 -27
-6 -30 0 -3 5 -15 6 -28 1 -12 -5 -32 -5 -44 0 -13 5 -25 4 -28 -2 -4 -5 -13
-6 -22 0 -9 5 -29 5 -45 1 -15 -5 -30 -5 -33 0 -3 5 -16 5 -30 0 -15 -6 -27
-6 -30 0 -3 6 -15 6 -30 0 -15 -6 -27 -6 -30 0 -3 5 -15 6 -28 1 -12 -5 -32
-5 -44 0 -13 5 -25 4 -28 -2 -4 -5 -11 -6 -17 -3 -9 6 -128 9 -150 4 -21 -4
-89 -2 -94 3 -3 3 -17 2 -30 -3 -14 -6 -24 -6 -24 0 0 5 -12 5 -28 1 -15 -5
-37 -5 -49 0 -13 5 -25 4 -28 -2 -4 -5 -11 -7 -16 -3 -9 5 -110 8 -134 4 -5
-2 -14 -1 -20 0 -11 2 -205 2 -217 0 -22 -4 -89 -2 -94 3 -3 3 -17 2 -30 -3
-13 -5 -24 -6 -24 -1 0 5 -16 5 -35 1 -19 -4 -37 -4 -40 0 -3 5 -19 5 -35 0
-17 -5 -30 -6 -30 -2 0 4 -27 7 -60 7 -33 0 -60 -3 -60 -6 0 -4 -16 -3 -34 1
-19 4 -37 5 -40 2 -8 -7 -85 -7 -92 1 -3 3 -17 2 -30 -3 -13 -5 -26 -6 -29 0
-3 5 -18 5 -35 0 -17 -5 -30 -5 -30 -1 0 4 -10 7 -22 7 -16 -1 -21 4 -18 14
10 29 9 715 -1 770 -35 194 -150 372 -309 480 -131 89 -267 128 -430 124 -96
-2 -166 -11 -192 -25 -10 -5 -18 -7 -18 -4 0 8 -112 -44 -175 -82 -177 -108
-305 -304 -331 -508 -14 -106 -8 -225 16 -330 7 -27 13 -54 14 -60 7 -34 76
-159 116 -210 49 -62 152 -157 176 -163 8 -2 14 -7 14 -12 0 -4 -8 -6 -17 -4
-38 9 -99 10 -120 2 -13 -4 -23 -4 -23 0 0 4 -16 7 -35 7 -19 0 -35 -2 -35 -5
0 -3 -19 -4 -42 -2 -24 1 -58 4 -75 5 -18 1 -33 0 -33 -3 0 -7 -69 -4 -76 3
-3 3 -17 2 -30 -3 -13 -5 -25 -6 -28 -2 -3 4 -32 5 -65 2 -34 -3 -61 -3 -61 0
0 4 -10 6 -22 6 -16 -1 -21 4 -18 14 10 31 10 1240 -1 1268 -50 131 -249 129
-299 -3 -7 -19 -11 -106 -11 -242 l0 -213 -364 0 -363 0 0 209 c0 212 -5 271
-24 271 -6 0 -9 3 -5 6 9 10 -44 50 -83 62 -75 24 -165 -14 -194 -81 -11 -26
-13 -154 -12 -647 1 -338 3 -622 6 -630 4 -12 -6 -15 -50 -17 -30 -1 -59 -2
-65 -3 -14 -3 -62 -2 -112 2 -24 2 -43 1 -43 -2 0 -7 -69 -5 -76 3 -3 3 -17 2
-30 -3 -14 -6 -26 -6 -29 1 -4 5 -10 7 -15 4 -9 -5 -78 -7 -132 -3 -21 2 -38
0 -38 -5 0 -4 -4 -6 -9 -2 -15 8 -104 10 -118 2 -37 -23 -38 -9 -37 851 0 457
3 834 6 837 3 3 2010 5 4462 6 l4456 0 0 159 0 160 -62 0 c-35 0 -2043 1
-4463 1 l-4400 0 1 595 0 594 -240 -2 -240 -3 0 -590 -1 -590 -862 -2 c-668
-2 -863 1 -864 10 -1 7 -2 273 -3 592 l-1 580 -157 3 c-87 1 -159 1 -159 0z
m1962 -1508 l85 0 0 -842 -1 -843 -45 -5 c-25 -3 -60 -2 -78 1 -17 4 -34 4
-36 0 -2 -3 -19 -5 -38 -4 -18 1 -52 4 -75 5 -24 2 -43 1 -43 -2 0 -7 -69 -5
-76 3 -3 3 -17 2 -30 -3 -14 -6 -26 -6 -29 1 -4 5 -10 7 -15 4 -9 -5 -78 -7
-132 -3 -21 2 -38 1 -38 -2 0 -6 -99 -2 -117 4 -7 3 -13 1 -13 -4 0 -5 -12 -5
-27 -1 -16 4 -44 4 -63 1 -19 -3 -49 -3 -67 1 -18 4 -34 4 -37 1 -8 -7 -85 -7
-92 1 -3 3 -17 2 -30 -3 -14 -6 -24 -6 -24 0 0 5 -12 5 -30 0 -17 -5 -32 -5
-35 0 -3 6 -16 5 -29 0 -13 -5 -27 -6 -30 -3 -4 4 -25 6 -49 5 -110 -4 -137
-3 -146 2 -5 4 -12 3 -15 -2 -2 -4 -24 -6 -48 -4 -24 1 -58 4 -75 5 -18 1 -33
0 -33 -3 0 -4 -67 -4 -80 0 -3 1 -15 1 -27 0 -16 -1 -23 4 -24 17 -1 10 -2
389 -3 843 l-1 825 135 5 c74 3 425 4 780 3 355 -2 684 -3 731 -3z m3925 -631
c172 -84 266 -288 231 -499 -27 -158 -143 -293 -288 -334 -92 -26 -137 -26
-244 -2 -115 26 -231 136 -277 263 -24 66 -33 205 -17 268 5 22 11 48 14 58
29 126 192 265 330 283 28 3 51 7 52 8 12 11 150 -21 199 -45z m-1569 -764 c2
-132 7 -253 13 -268 5 -15 5 -25 0 -22 -5 3 -11 1 -15 -4 -3 -7 -15 -7 -30 -1
-15 6 -27 6 -30 0 -3 -6 -15 -6 -30 0 -14 5 -27 5 -30 0 -3 -5 -18 -5 -34 0
-16 4 -31 6 -34 4 -5 -5 -68 -6 -119 -2 -21 2 -38 1 -38 -2 0 -7 -69 -4 -76 3
-3 3 -16 2 -29 -3 -13 -5 -26 -6 -29 -3 -8 8 -102 7 -116 -2 -5 -3 -10 -3 -10
2 0 4 -16 8 -35 8 -19 0 -35 -3 -35 -6 0 -3 -14 -4 -31 -1 -29 4 -30 6 -24 44
4 22 7 140 7 261 0 122 2 224 3 227 2 3 164 5 362 5 l358 -1 2 -239z m1800
-297 c-6 -4 -13 -4 -15 1 -1 4 -26 6 -55 4 -44 -2 -49 -1 -33 10 10 6 35 26
55 44 l36 32 12 -41 c10 -33 10 -43 0 -50z m-5289 -318 c257 1 474 1 482 1 8
0 80 0 160 0 80 0 152 0 160 0 8 0 105 -1 216 -1 l200 0 0 -845 0 -845 -865 2
-866 3 0 838 c0 730 2 840 15 847 8 5 18 6 23 3 4 -2 218 -4 475 -3z m3247
-608 c127 -40 207 -124 236 -249 7 -30 12 -186 13 -423 1 -206 6 -383 10 -392
8 -17 -14 -18 -374 -18 -360 0 -382 1 -374 18 4 9 8 197 9 417 2 404 5 449 33
495 43 69 115 122 212 153 49 17 183 16 235 -1z m1711 7 c163 -40 262 -147
311 -339 9 -33 4 -189 -6 -208 -6 -11 -8 -22 -4 -25 3 -3 -11 -39 -31 -80 -51
-106 -126 -171 -241 -213 -92 -33 -234 -20 -334 30 -87 45 -186 170 -206 261
-14 63 -14 211 0 263 38 148 166 284 288 307 11 3 21 6 23 8 9 9 157 6 200 -4z
m3219 -216 c1 -198 0 -203 -20 -204 -86 -2 -176 1 -185 6 -5 3 -10 2 -10 -2 0
-14 -142 2 -175 19 -151 79 -156 279 -10 355 53 28 78 31 240 30 l160 -2 0
-202z m-1639 -118 c76 -171 307 -697 309 -705 0 -3 6 -15 13 -27 l13 -23 -401
0 c-378 0 -400 1 -392 18 11 19 54 115 123 270 12 26 35 76 52 112 17 36 31
67 32 70 1 3 14 32 29 65 36 75 69 148 71 155 1 3 15 34 31 70 17 36 37 80 45
98 l14 32 24 -52 c13 -29 29 -66 37 -83z m2869 -410 c86 -103 139 -167 150
-179 6 -6 38 -46 73 -89 l63 -77 -345 0 c-190 0 -346 3 -346 8 0 4 16 25 35
47 40 46 40 47 80 100 16 22 35 46 42 53 7 7 34 41 60 75 26 34 52 67 58 73 5
6 21 25 34 43 14 17 27 28 31 24 4 -4 33 -39 65 -78z m-1229 -115 c0 -85 4
-173 8 -195 l7 -40 -261 3 -261 3 63 77 c35 42 66 81 71 87 4 5 17 21 28 35
12 14 50 62 86 107 l65 82 97 -2 96 -2 1 -155z"/>
</g>
</svg>
